{"title":"The Musketeers S03E06 - Death of a Hero x264 RB58.mp4","uid":15415181,"size":634726141,"categoryP":"video","categoryS":"tv_shows","magnet":"?xt=urn:btih:c4ba3afd128e8ab851a4b49ba370be8839f24e91&amp;dn=The+Musketeers+S03E06+-+Death+of+a+Hero+x264+RB58.mp4&amp;tr=udp%3A%2F%2Ftracker.leechers-paradise.org%3A6969&amp;tr=udp%3A%2F%2Fzer0day.ch%3A1337&amp;tr=udp%3A%2F%2Fopen.demonii.com%3A1337&amp;tr=udp%3A%2F%2Ftracker.coppersurfer.tk%3A6969&amp;tr=udp%3A%2F%2Fexodus.desync.com%3A6969","seeders":1,"leechers":0,"uploader":"RedBaron58","files":1,"time":1469584067,"description":"The Musketeers S03E06 Death of a Hero x264 mp4\r\n \nhttp://www.imdb.com/title/tt2733252/\r\n\r\nTrailer:\r\n\r\nPlease be patient My intial upload speed is limited.\r\nThank you for your kind comments and feedback on my other torrents, your feedback is welcome.\r\n\r\n\r\nAbout the Episode:\r\nThe day of reckoning arrives for the swashbuckling heroes, as the murderous Grimaud sets \r\nin motion a series of savage, co-ordinated attacks designed to eliminate the Musketeers \r\nfor good. \r\nDespite receiving Grimaud's direct attention, Athos manages to escape with his life, \r\nand sets out to warn his comrades they will be next on the hit-list. \r\nMeanwhile, Aramis finds his affair with Queen Anne in the forefront of his mind \r\nas he accompanies King Louis on an annual pilgrimage to mark his royal father's death.\r\n \r\nTom Burke, Howard Charles and Santiago Cabrera starring as d'Artagnan, \r\nAthos, Porthos and Aramis.\r\n\r\n\r\nI hope you enjoy.\r\n\r\n\r\nTechnical:\r\n\r\nGeneral\r\nComplete name                            : I:The Musketeers S03E06 - Death of a Hero x264 RB58.mp4\r\nFormat                                   : MPEG-4\r\nFormat profile                           : Base Media\r\nCodec ID                                 : isom\r\nFile size                                : 605 MiB\r\nDuration                                 : 55mn 20s\r\nOverall bit rate                         : 1 529 Kbps\r\nWriting application                      : Lavf54.63.104\r\n\r\nVideo\r\nID                                       : 1\r\nFormat                                   : AVC\r\nFormat/Info                              : Advanced Video Codec\r\nFormat profile                           :   \r\nFormat settings, CABAC                   : Yes\r\nFormat settings, ReFrames                : 4 frames\r\nCodec ID                                 : avc1\r\nCodec ID/Info                            : Advanced Video Coding\r\nDuration                                 : 55mn 20s\r\nBit rate                                 : 1 400 Kbps\r\nWidth                                    : 832 pixels\r\nHeight                                   : 468 pixels\r\nDisplay aspect ratio                     : 16:9\r\nFrame rate mode                          : Constant\r\nFrame rate                               : 25.000 fps\r\nColor space                              : YUV\r\nChroma subsampling                       : 4:2:0\r\nBit depth                                : 8 bits\r\nScan type                                : Progressive\r\nBits/(Pixel*Frame)                       : 0.144\r\nStream size                              : 554 MiB (92%)\r\nWriting library                          : x264 core 123 r2189 35cf912\r\nEncoding settings                        : cabac=1 / ref=3 / deblock=1:0:0\r\n\r\nAudio\r\nID                                       : 2\r\nFormat                                   : AAC\r\nFormat/Info                              : Advanced Audio Codec\r\nFormat profile                           : LC\r\nCodec ID                                 : 40\r\nDuration                                 : 55mn 20s\r\nBit rate mode                            : Constant\r\nBit rate                                 : 121 Kbps\r\nChannel(s)                               : 2 channels\r\nChannel positions                        : Front: L R\r\nSampling rate                            : 48.0 KHz\r\nCompression mode                         : Lossy\r\nStream size                              : 47.9 MiB (8%)","torrent":{"xt":"urn:btih:c4ba3afd128e8ab851a4b49ba370be8839f24e91","amp;dn":"The+Musketeers+S03E06+-+Death+of+a+Hero+x264+RB58.mp4","amp;tr":["udp%3A%2F%2Ftracker.leechers-paradise.org%3A6969","udp%3A%2F%2Fzer0day.ch%3A1337","udp%3A%2F%2Fopen.demonii.com%3A1337","udp%3A%2F%2Ftracker.coppersurfer.tk%3A6969","udp%3A%2F%2Fexodus.desync.com%3A6969"],"infoHash":"c4ba3afd128e8ab851a4b49ba370be8839f24e91","infoHashBuffer":{"type":"Buffer","data":[196,186,58,253,18,142,138,184,81,164,180,155,163,112,190,136,57,242,78,145]},"announce":[],"urlList":[]}}